<?xml version="1.0" encoding="utf-8"?>
<!-- Generator: Adobe Illustrator 23.0.6, SVG Export Plug-In . SVG Version: 6.00 Build 0)  -->
<svg version="1.1" id="Layer_1" xmlns="http://www.w3.org/2000/svg" xmlns:xlink="http://www.w3.org/1999/xlink" x="0px" y="0px"
	 viewBox="0 0 200 68.1" style="enable-background:new 0 0 200 68.1;" xml:space="preserve">
<style type="text/css">
	.st0{fill-rule:evenodd;clip-rule:evenodd;fill:#151515;}
</style>
<path id="Turing" class="st0" d="M24.9,12h14.7V2.1H0V12h14.7v39.3h10.1L24.9,12L24.9,12z M40.2,17.8v21c0,1.8,0.3,3.4,0.8,5
	c0.5,1.6,1.3,2.9,2.2,4.2c1,1.2,2.3,2.2,3.9,2.9c1.6,0.7,3.4,1.1,5.4,1.1c4,0,7.1-1.6,9.3-4.8H62v4.2h9.7V17.8h-9.8v18.7
	c0,1.9-0.5,3.4-1.5,4.6c-1,1.2-2.5,1.8-4.5,1.8c-2,0-3.4-0.6-4.4-1.7c-1-1.2-1.4-2.7-1.4-4.7V17.8H40.2z M98.8,17.4
	c-1.9,0-3.6,0.4-5.1,1.3s-2.7,2.2-3.6,4H90v-4.9h-9.3v33.5h9.6V36.6c0-3,0.7-5.4,2.2-7c1.5-1.6,3.4-2.5,5.8-2.5
	c1.2,0,2.3,0.1,3.1,0.2v-9.6C100.5,17.6,99.6,17.4,98.8,17.4L98.8,17.4L98.8,17.4z M112.1,12.2c1.7,0,3.2-0.6,4.4-1.8
	c1.2-1.2,1.8-2.6,1.8-4.3c0-1.7-0.6-3.1-1.8-4.3c-1.2-1.2-2.7-1.8-4.4-1.8c-1.6,0-3,0.6-4.2,1.8c-1.2,1.2-1.8,2.6-1.8,4.3
	c0,1.7,0.6,3.1,1.8,4.3C109,11.6,110.5,12.2,112.1,12.2L112.1,12.2L112.1,12.2z M117.1,17.8v33.5h-9.8V17.8H117.1z M157.5,51.3V30.5
	c0-1.8-0.2-3.4-0.7-5c-0.5-1.6-1.2-3-2.1-4.2c-1-1.3-2.2-2.3-3.8-3c-1.6-0.7-3.4-1.1-5.5-1.1c-0.5,0-1,0.1-1.7,0.2
	c-0.7,0.1-1.5,0.3-2.5,0.6c-1,0.3-2,0.8-2.9,1.6c-0.9,0.7-1.7,1.6-2.3,2.7h-0.1v-4.4h-9.7v33.5h9.7V32.7c0-1.8,0.5-3.4,1.5-4.6
	c1-1.2,2.5-1.9,4.5-1.9c1.9,0,3.4,0.6,4.4,1.8s1.5,2.8,1.5,4.7v18.6H157.5L157.5,51.3z M190.3,17.8v4h-0.1c-0.8-0.9-1.7-1.8-2.7-2.4
	c-1-0.7-2-1.1-2.9-1.4s-1.8-0.5-2.5-0.6c-0.7-0.1-1.3-0.2-2-0.2c-2.4,0-4.5,0.5-6.5,1.5c-2,1-3.7,2.3-5,3.9
	c-1.3,1.6-2.4,3.4-3.1,5.5c-0.8,2-1.1,4.1-1.1,6.3c0,3.1,0.7,6,2,8.6c1.3,2.6,3.2,4.6,5.7,6.1c2.5,1.5,5.3,2.3,8.4,2.3
	c4.1,0,7.4-1.5,9.7-4.5h0.1v3.8c0,1.5-0.2,2.8-0.7,4c-0.5,1.2-1.2,2.1-2,2.8c-0.8,0.7-1.8,1.2-2.9,1.6c-1.1,0.3-2.2,0.5-3.4,0.5
	c-2.2,0-3.9-0.6-5.3-1.8c-1.3-1.2-2.2-2.7-2.5-4.4l-9,2.6c0.3,1.6,0.9,3.1,1.8,4.5c0.9,1.4,2.1,2.7,3.5,3.8c1.4,1.1,3.2,2.1,5.2,2.7
	c2.1,0.7,4.3,1,6.7,1c2.7,0,5.1-0.4,7.4-1.2c2.2-0.8,4.2-1.9,5.8-3.4c1.6-1.5,2.9-3.4,3.8-5.8c0.9-2.4,1.4-5.1,1.4-8.1V17.8H190.3z
	 M188.1,40.4c-1.6,1.6-3.5,2.4-5.8,2.4c-2.3,0-4.2-0.8-5.8-2.3c-1.6-1.6-2.3-3.6-2.3-6.1c0-2.4,0.8-4.4,2.4-6
	c1.6-1.6,3.5-2.4,5.8-2.4c2.3,0,4.2,0.8,5.8,2.4c1.6,1.6,2.3,3.6,2.3,6C190.5,36.8,189.7,38.9,188.1,40.4z"/>
</svg>
