<svg xmlns="http://www.w3.org/2000/svg" width="640" height="619" viewBox="0 0 640 619" version="1.1"><path d="M 251 30.113 C 221.847 37.855, 220.705 38.658, 219.456 52.284 L 218.834 59.068 206.795 65.103 C 147.915 94.619, 101.383 143.632, 77.592 201.196 C 73.581 210.901, 67 230.472, 67 232.695 C 67 233.613, 64.378 232.289, 59.777 229.047 L 52.553 223.958 50.778 230.229 C 48.935 236.738, 44 260.169, 44 262.411 C 44 263.114, 47.345 266.058, 51.434 268.953 L 58.867 274.217 58.284 291.952 C 55.963 362.507, 80.636 431.344, 127.125 484.019 C 135.010 492.955, 135.745 494, 134.138 494 C 133.664 494, 130.229 495.382, 126.504 497.071 L 119.732 500.141 123.616 504.174 C 129.043 509.808, 149.062 527, 150.196 527 C 150.710 527, 154.468 525.458, 158.547 523.574 L 165.963 520.147 178.265 528.362 C 235.187 566.376, 312.935 580.290, 382.819 564.971 C 389.468 563.513, 389.335 563.333, 388.118 572.118 C 386.762 581.897, 387.197 581.911, 413.828 572.978 C 427.477 568.399, 426.072 569.784, 427.064 559.936 C 427.517 555.450, 428.033 551.634, 428.212 551.455 C 428.390 551.276, 433.028 549.034, 438.518 546.471 C 505.022 515.429, 557.921 453.147, 579.062 381 C 581.993 370.998, 581.899 371.039, 589.441 376.421 C 598.078 382.584, 598.109 382.535, 603.470 354.500 C 605.800 342.314, 605.981 342.829, 597.202 336.643 L 589.405 331.147 590.285 321.824 C 596.810 252.720, 570.784 177.326, 522.344 125.005 L 517.053 119.290 525.178 115.478 L 533.302 111.665 522.901 101.573 C 517.180 96.022, 510.250 89.630, 507.500 87.368 L 502.500 83.257 493.741 87.274 L 484.981 91.290 479.241 87.178 C 448.761 65.341, 411.143 49.267, 375 42.635 C 353.699 38.727, 351.147 38.520, 324.500 38.547 C 296.797 38.575, 290.305 39.177, 267.741 43.815 L 258.982 45.615 259.449 42.558 C 260.995 32.436, 261.109 28.002, 259.822 28.061 C 259.095 28.094, 255.125 29.018, 251 30.113 M 303.500 145.004 C 285.283 147.753, 277.553 149.835, 262.381 156.074 C 101.803 222.115, 150.642 465, 324.500 465 C 504.168 465, 546.550 210.024, 376.500 152.159 C 355.418 144.986, 324.017 141.908, 303.500 145.004 M 299 239.636 C 278.443 243.393, 269.838 269.772, 284.415 284.348 C 297.241 297.175, 319.086 294.353, 327.067 278.839 C 337.343 258.862, 320.735 235.663, 299 239.636 M 352.875 341.004 C 345.815 344.735, 344.171 355.352, 349.743 361.227 C 358.370 370.321, 373.554 363.898, 372.429 351.631 C 371.508 341.586, 361.779 336.299, 352.875 341.004" stroke="none" fill="#edeeee" fill-rule="evenodd"/><path d="M 300 2.082 C 285.737 3.174, 263.330 6.658, 262.560 7.903 C 262.332 8.272, 261.658 15.758, 261.062 24.537 C 260.467 33.317, 259.742 41.654, 259.451 43.064 L 258.923 45.627 267.711 43.821 C 290.309 39.177, 296.790 38.575, 324.500 38.547 C 351.147 38.520, 353.699 38.727, 375 42.635 C 411.138 49.266, 448.763 65.343, 479.230 87.170 L 484.960 91.275 494.230 87.225 C 499.328 84.997, 507.462 81.479, 512.303 79.405 C 523.302 74.696, 523.115 75.251, 515.717 69.269 C 475.339 36.616, 426.392 14.654, 373.500 5.457 C 351.379 1.610, 323.118 0.312, 300 2.082 M 213.892 20.383 C 134.402 50.774, 69.029 116.667, 38.669 197 C 33.287 211.242, 33.292 211.004, 38.256 214.423 C 60.206 229.538, 67 233.844, 67 232.640 C 67 231.878, 68.574 226.448, 70.499 220.573 C 92.530 153.317, 140.942 98.114, 206.878 65.061 C 213.545 61.719, 219.003 58.426, 219.008 57.742 C 219.012 57.059, 219.492 52.675, 220.076 48 C 222.207 30.913, 223.531 17.001, 223.022 17.046 C 222.735 17.071, 218.626 18.573, 213.892 20.383 M 543.225 106.453 C 538.124 108.797, 533.677 110.989, 533.343 111.324 C 533.009 111.658, 529.207 113.587, 524.894 115.611 L 517.053 119.290 522.344 125.005 C 570.784 177.326, 596.810 252.720, 590.285 321.824 L 589.405 331.147 597.291 336.824 C 619.914 353.107, 625.528 356.779, 626.102 355.667 C 627.029 353.868, 628.943 336.106, 629.978 319.704 C 634.603 246.361, 603.912 157.400, 556.369 106.345 L 552.500 102.189 543.225 106.453 M 303.500 145.004 C 285.283 147.753, 277.553 149.835, 262.381 156.074 C 101.803 222.115, 150.642 465, 324.500 465 C 504.168 465, 546.550 210.024, 376.500 152.159 C 355.418 144.986, 324.017 141.908, 303.500 145.004 M 299 239.636 C 278.443 243.393, 269.838 269.772, 284.415 284.348 C 297.241 297.175, 319.086 294.353, 327.067 278.839 C 337.343 258.862, 320.735 235.663, 299 239.636 M 23.513 251.750 C 3.591 329.552, 33.085 434.966, 95.298 508.324 L 97.694 511.149 115.376 502.574 C 125.100 497.858, 133.494 494, 134.029 494 C 135.757 494, 135.121 493.080, 127.125 484.019 C 80.649 431.359, 55.964 362.503, 58.283 291.999 L 58.864 274.313 50.246 267.906 C 22.099 246.985, 24.380 248.363, 23.513 251.750 M 352.875 341.004 C 345.815 344.735, 344.171 355.352, 349.743 361.227 C 358.370 370.321, 373.554 363.898, 372.429 351.631 C 371.508 341.586, 361.779 336.299, 352.875 341.004 M 581.698 372.750 C 581.467 373.163, 580.285 376.875, 579.071 381 C 557.796 453.305, 505.030 515.425, 438.518 546.471 C 426.484 552.088, 428.023 550.395, 426.992 559.155 C 426.517 563.195, 425.345 572.683, 424.387 580.240 C 422.290 596.789, 421.585 595.936, 433.641 591.427 C 517.335 560.126, 585.436 489.005, 614.428 402.620 C 615.883 398.286, 616.944 394.647, 616.787 394.533 C 610.398 389.933, 597.031 381, 596.536 381 C 596.163 381, 593.021 378.975, 589.552 376.500 C 582.965 371.799, 582.385 371.523, 581.698 372.750 M 163 521.489 C 161.625 522.269, 158.025 523.870, 155 525.046 C 149.364 527.238, 126.887 537.102, 126.015 537.767 C 125.459 538.191, 126.169 538.782, 139.606 549.090 C 153.280 559.579, 163.475 566.077, 183.281 576.928 C 200.099 586.141, 230.696 597.537, 253.065 602.919 C 263.956 605.539, 268.464 606.410, 282.500 608.608 C 305.507 612.211, 342.220 612.224, 367 608.640 C 377.057 607.185, 385.001 605.629, 385.008 605.113 C 385.012 604.776, 385.445 601.800, 385.970 598.500 C 386.495 595.200, 387.156 588.001, 387.438 582.502 C 387.721 577.002, 388.239 570.590, 388.590 568.252 C 389.308 563.460, 389.213 563.414, 382 565.102 C 315.499 580.661, 234.740 566.077, 178.155 528.289 C 171.328 523.730, 165.688 520.016, 165.621 520.035 C 165.555 520.055, 164.375 520.709, 163 521.489" stroke="none" fill="#3c6f80" fill-rule="evenodd"/></svg>